<svg id="Layer_1" data-name="Layer 1" xmlns="http://www.w3.org/2000/svg" viewBox="0 0 164.53 42.81"><defs><style>.cls-1{fill:#00a297;}.cls-2{fill:#111;}</style></defs><path class="cls-1" d="M12.63,9.05a18.62,18.62,0,0,1,13.56-4.6c7,.4,12.31,3.63,15.55,9.85a17.3,17.3,0,0,1-3,19.85A18.13,18.13,0,0,1,24.7,39.76a18.87,18.87,0,0,1-12.59-5.08L12,34.55l.12-.06a17.43,17.43,0,0,0,8.11,3.38c8,1.14,15.85-3.16,18.67-10.24a14.19,14.19,0,0,0-2.33-15A17.76,17.76,0,0,0,15.84,7.53a17.24,17.24,0,0,0-3.09,1.71C12.6,9.24,12.6,9.15,12.63,9.05Z" transform="translate(0 -0.69)"/><path class="cls-1" d="M18.37,10a0,0,0,0,0,0-.05A1.85,1.85,0,0,1,20,9.25c1.67,0,3.35,0,5,0a1.49,1.49,0,0,1,1.55,1.15,3.25,3.25,0,0,1,.12,1c0,2,0,4,0,6,0,.34.1.44.44.44,1.34,0,2.69,0,4,0h1.38c-1.08.45-2.2.73-3.22,1.28a11.26,11.26,0,0,0-2.66,1.45,11.64,11.64,0,0,0-3.38,3.36,3.61,3.61,0,0,0-.61.89c-.28.47-.29.48-.55,0a14.16,14.16,0,0,0-7.43-6.08c-.82-.32-1.66-.59-2.49-.93h5.26c.6,0,.6,0,.6-.61q0-2.62,0-5.25A4.86,4.86,0,0,1,18.37,10Zm4,11.79a2.16,2.16,0,1,0,0-4.31,2.16,2.16,0,1,0,0,4.31Z" transform="translate(0 -0.69)"/><path class="cls-1" d="M22.28,35H19.85a1.54,1.54,0,0,1-1.65-1.21,3.25,3.25,0,0,1-.12-1c0-2,0-4,0-6,0-.34-.09-.43-.43-.43-2.05,0-4.09,0-6.14,0a2.75,2.75,0,0,1-1-.17,1.43,1.43,0,0,1-1.08-1.53c0-1.74,0-3.48,0-5.21a1.56,1.56,0,0,1,1.7-1.59c.56.4,1.14.79,1.69,1.21a28.28,28.28,0,0,1,4.53,4.42,31.37,31.37,0,0,1,2.75,4.27,23.84,23.84,0,0,1,1.81,4.9A8.59,8.59,0,0,1,22.28,35Z" transform="translate(0 -0.69)"/><path class="cls-1" d="M35.43,19.14c0,1.94,0,3.87,0,5.81a1.39,1.39,0,0,1-.58,1,2.44,2.44,0,0,1-1.5.45c-2.07,0-4.14,0-6.21,0-.31,0-.46.08-.41.4,0,.12,0,.24,0,.36v.43c-.07,1.52-.07,3,0,4.55l0,1.08-.07.45-.06.19-.49.8A1.75,1.75,0,0,1,25,35c-.81,0-1.62,0-2.42,0a.83.83,0,0,1,0-.27,26.4,26.4,0,0,1,1-4,30,30,0,0,1,1.72-3.84A27.51,27.51,0,0,1,28.83,22l1.47-1.46h0a37.48,37.48,0,0,1,3.4-2.62.09.09,0,0,0,.07,0A1.74,1.74,0,0,1,35.43,19.14Z" transform="translate(0 -0.69)"/><path class="cls-1" d="M20.5,43.47a21,21,0,0,1-8.08-2A21.35,21.35,0,0,1,1,28.66a20.44,20.44,0,0,1-1-5,22.41,22.41,0,0,1,.23-5.11,21.45,21.45,0,0,1,3.29-8.29A21.54,21.54,0,0,1,18.46.92a22.74,22.74,0,0,1,8.1.29,22.18,22.18,0,0,1,8.62,3.93,23.19,23.19,0,0,1,2.08,1.75l.09.1a.21.21,0,0,0,0,.06l0,.1a10,10,0,0,1-1.56-1A20.25,20.25,0,0,0,18.4,3.8,19.66,19.66,0,0,0,9.28,9.61a18.28,18.28,0,0,0-.74,24.1,20.28,20.28,0,0,0,7.54,5.81,20.86,20.86,0,0,0,7,1.78A20.17,20.17,0,0,0,32,40a18.37,18.37,0,0,0,5.08-2.88,3,3,0,0,1,.29-.2l.12.13a17.61,17.61,0,0,1-3,2.48,22.43,22.43,0,0,1-14,3.94" transform="translate(0 -0.69)"/><path class="cls-1" d="M19.75,43.24a40.08,40.08,0,0,0,4.1,0,23.35,23.35,0,0,0,5.66-1.28,23.66,23.66,0,0,0,4.78-2.44c.09-.06.25-.12.16-.26s-.19,0-.31,0c-.42.17-.7.64-1.24.57a.23.23,0,0,0-.11.07,3.7,3.7,0,0,1-.94.45c-.69.29-1.45.33-2.14.64a1.92,1.92,0,0,1-.7.22,20.21,20.21,0,0,0-2.45.29,23.64,23.64,0,0,1-3.47,0,12.71,12.71,0,0,1-2.52-.33c-.79-.17-1.58-.36-2.36-.6a14.4,14.4,0,0,1-2.38-.89,17.84,17.84,0,0,1-3.11-1.8,15.37,15.37,0,0,1-1.51-1.1,21.94,21.94,0,0,1-3-3.15c-.29-.43-.68-.77-.95-1.24a25.87,25.87,0,0,1-1.9-3.75,19,19,0,0,1-.81-2.56,11,11,0,0,1-.33-2.81c0-.41-.07-.85,0-1.25a7.7,7.7,0,0,1,0-1.73,20.53,20.53,0,0,0,.43-2.21,8.27,8.27,0,0,1,.56-2.2c.1-.23.21-.44.3-.67a8,8,0,0,1,.78-1.73,8.46,8.46,0,0,1,1.31-2s.07-.08.06-.11c-.17-.39.17-.49.38-.67a2.94,2.94,0,0,0,.49-.51,32.3,32.3,0,0,1,3-3.09,2.38,2.38,0,0,1,1.15-.72c.3-.09.5-.43.76-.56.65-.32,1.24-.73,1.9-1a25.1,25.1,0,0,1,3.37-1.33,17.46,17.46,0,0,1,2.87-.62A5.6,5.6,0,0,0,23,2.71c.86-.37,1.74,0,2.6-.2a.46.46,0,0,1,.32.12.69.69,0,0,0,.5.13,12.84,12.84,0,0,1,4.07.7A13.33,13.33,0,0,1,32.31,4a6.26,6.26,0,0,0,1.51.57.43.43,0,0,0,.45.32c.06,0,.09-.08.06-.14s-.28-.18-.46-.18h0a3.17,3.17,0,0,0-1.46-1A15,15,0,0,0,29.93,2.5a6.31,6.31,0,0,0-2.22-.64.4.4,0,0,1-.23-.12A.92.92,0,0,0,27,1.53,30.07,30.07,0,0,0,23.36,1,15.19,15.19,0,0,0,20.42.9c-.21,0-.35.22-.57.16a5.47,5.47,0,0,0-2.09.18A15.67,15.67,0,0,0,15,2a14.29,14.29,0,0,0-3.34,1.36,6.24,6.24,0,0,0-1.62.94,2.84,2.84,0,0,1-.92.61c-.28.14-.63.23-.69.62h0a1.94,1.94,0,0,0-1.05.71C7,6.61,6.59,7,6.2,7.4s-.76.84-1.14,1.24a14.45,14.45,0,0,0-1.46,2c-.49.73-.86,1.53-1.31,2.29-.16.27-.48.63-.35.9.21.46-.2.51-.33.73a1.15,1.15,0,0,0-.06.17,10.63,10.63,0,0,0-.34,1.15,5,5,0,0,0-.48,1.77,6.77,6.77,0,0,1-.15,1,11,11,0,0,0-.36,1.87,26.21,26.21,0,0,0,.15,4.06,13.45,13.45,0,0,0,1,4.14.26.26,0,0,1,.05.17,4.73,4.73,0,0,0,.7,2.06,22,22,0,0,0,1.44,2.54c.45.71,1,1.36,1.45,2,.16.21.43.38.55.59a10.81,10.81,0,0,0,1.85,2c.63.64,1.49,1,2.14,1.65a6.66,6.66,0,0,0,1.53.91,31.78,31.78,0,0,0,3.37,1.51,1.78,1.78,0,0,0,.41.17c.84.11,1.64.45,2.48.57a22,22,0,0,0,2.39.38" transform="translate(0 -0.69)"/><path class="cls-1" d="M35.1,38.81a.35.35,0,0,0-.44.21.08.08,0,0,0,.09.11A.44.44,0,0,0,35.1,38.81Z" transform="translate(0 -0.69)"/><path class="cls-1" d="M12.36,9.3" transform="translate(0 -0.69)"/><path class="cls-1" d="M12.36,9.3a3.21,3.21,0,0,1,.27-.25c0,.1.13.06.12.19L11.39,10.3" transform="translate(0 -0.69)"/><path class="cls-1" d="M12.12,34.49l-.12.06a.86.86,0,0,1-.44-.48h0A1.68,1.68,0,0,1,12.12,34.49Z" transform="translate(0 -0.69)"/><path class="cls-1" d="M11.39,10.3h0" transform="translate(0 -0.69)"/><path class="cls-1" d="M37.35,7l-.09-.1Z" transform="translate(0 -0.69)"/><path class="cls-1" d="M12.36,9.3" transform="translate(0 -0.69)"/><path class="cls-1" d="M38.16,36.24l.05,0,0,0Z" transform="translate(0 -0.69)"/><path class="cls-1" d="M19.75,43.24a22,22,0,0,1-2.39-.38c-.84-.12-1.64-.46-2.48-.57a1.78,1.78,0,0,1-.41-.17,31.78,31.78,0,0,1-3.37-1.51,6.66,6.66,0,0,1-1.53-.91c-.65-.64-1.51-1-2.14-1.65a10.81,10.81,0,0,1-1.85-2c-.12-.21-.39-.38-.55-.59-.49-.67-1-1.32-1.45-2a22,22,0,0,1-1.44-2.54,4.73,4.73,0,0,1-.7-2.06.26.26,0,0,0-.05-.17,13.45,13.45,0,0,1-1-4.14,26.21,26.21,0,0,1-.15-4.06,11,11,0,0,1,.36-1.87,6.77,6.77,0,0,0,.15-1,5,5,0,0,1,.48-1.77,10.63,10.63,0,0,1,.34-1.15,1.15,1.15,0,0,1,.06-.17c.13-.22.54-.27.33-.73-.13-.27.19-.63.35-.9.45-.76.82-1.56,1.31-2.29a14.45,14.45,0,0,1,1.46-2c.38-.4.77-.83,1.14-1.24S7,6.61,7.41,6.19a1.94,1.94,0,0,1,1.05-.71c0,.07,0,.15.12.13s.05-.05.08-.08l-.2,0c.06-.39.41-.48.69-.62a2.84,2.84,0,0,0,.92-.61,6.24,6.24,0,0,1,1.62-.94A14.29,14.29,0,0,1,15,2a15.67,15.67,0,0,1,2.73-.71,5.47,5.47,0,0,1,2.09-.18c.22.06.36-.14.57-.16A15.19,15.19,0,0,1,23.36,1,30.07,30.07,0,0,1,27,1.53a.92.92,0,0,1,.47.21.4.4,0,0,0,.23.12,6.31,6.31,0,0,1,2.22.64,15,15,0,0,1,2.43,1.14,3.17,3.17,0,0,1,1.46,1h0A6.26,6.26,0,0,1,32.31,4a13.33,13.33,0,0,0-1.79-.57,12.84,12.84,0,0,0-4.07-.7.69.69,0,0,1-.5-.13.46.46,0,0,0-.32-.12c-.86.2-1.74-.17-2.6.2a5.6,5.6,0,0,1-1.49.12,17.46,17.46,0,0,0-2.87.62A25.1,25.1,0,0,0,15.3,4.78c-.66.31-1.25.72-1.9,1-.26.13-.46.47-.76.56a2.38,2.38,0,0,0-1.15.72,32.3,32.3,0,0,0-3,3.09A2.94,2.94,0,0,1,8,10.7c-.21.18-.55.28-.38.67,0,0,0,.09-.06.11a8.46,8.46,0,0,0-1.31,2,8,8,0,0,0-.78,1.73c-.09.23-.2.44-.3.67a8.27,8.27,0,0,0-.56,2.2,20.53,20.53,0,0,1-.43,2.21,7.7,7.7,0,0,0,0,1.73c0,.4.06.84,0,1.25a11,11,0,0,0,.33,2.81,19,19,0,0,0,.81,2.56,25.87,25.87,0,0,0,1.9,3.75c.27.47.66.81.95,1.24a21.94,21.94,0,0,0,3,3.15,15.37,15.37,0,0,0,1.51,1.1,17.84,17.84,0,0,0,3.11,1.8,14.4,14.4,0,0,0,2.38.89c.78.24,1.57.43,2.36.6a12.71,12.71,0,0,0,2.52.33,23.64,23.64,0,0,0,3.47,0A20.21,20.21,0,0,1,29,41.17a1.92,1.92,0,0,0,.7-.22c.69-.31,1.45-.35,2.14-.64a3.7,3.7,0,0,0,.94-.45.23.23,0,0,1,.11-.07c.54.07.82-.4,1.24-.57.12,0,.24-.12.31,0s-.07.2-.16.26a23.66,23.66,0,0,1-4.78,2.44,23.35,23.35,0,0,1-5.66,1.28,40.08,40.08,0,0,1-4.1,0" transform="translate(0 -0.69)"/><path class="cls-1" d="M33.82,4.6h0c.18,0,.36,0,.46.18s0,.14-.06.14a.43.43,0,0,1-.45-.32Z" transform="translate(0 -0.69)"/><path class="cls-1" d="M35.1,38.81a.44.44,0,0,1-.35.32.08.08,0,0,1-.09-.11A.35.35,0,0,1,35.1,38.81Z" transform="translate(0 -0.69)"/><path class="cls-1" d="M8.46,5.48l.2,0s-.05.08-.08.08-.11-.06-.12-.13Z" transform="translate(0 -0.69)"/><path class="cls-2" d="M50.09,34.06V8.75h3.45L63.8,25.17h-2L72.05,8.75H75.5V34.06H70.64V17.14l.94.29L64.45,28.88H61.14L54,17.43l1-.29V34.06Z" transform="translate(0 -0.69)"/><path class="cls-2" d="M88.5,34.42a9.87,9.87,0,0,1-4.86-1.17A8.76,8.76,0,0,1,79,25.35a9,9,0,0,1,1.2-4.63,9.1,9.1,0,0,1,7.94-4.44,8.56,8.56,0,0,1,4.45,1.13,8.17,8.17,0,0,1,3,3.1A8.84,8.84,0,0,1,96.74,25c0,.31,0,.63,0,1s-.11.69-.2,1.09L81.87,27V23.51l12.42,0L92.39,25a7,7,0,0,0-.56-2.59,3.56,3.56,0,0,0-1.41-1.6,4.27,4.27,0,0,0-2.25-.56,4.68,4.68,0,0,0-2.45.63,4.2,4.2,0,0,0-1.6,1.76,6.09,6.09,0,0,0-.56,2.69,6,6,0,0,0,.6,2.75,4.25,4.25,0,0,0,1.71,1.8,5.18,5.18,0,0,0,2.59.63A6.2,6.2,0,0,0,90.87,30a5.1,5.1,0,0,0,1.88-1.35l2.77,2.77a8,8,0,0,1-3.08,2.23A10.06,10.06,0,0,1,88.5,34.42Z" transform="translate(0 -0.69)"/><path class="cls-2" d="M107,34.42a8,8,0,0,1-4.32-1.19,8.37,8.37,0,0,1-3-3.24,9.52,9.52,0,0,1-1.1-4.61,9.61,9.61,0,0,1,1.1-4.64,8.4,8.4,0,0,1,3-3.24A8,8,0,0,1,107,16.31a7.3,7.3,0,0,1,3.37.76,6.28,6.28,0,0,1,2.41,2.1,5.79,5.79,0,0,1,1,3v6.19a5.92,5.92,0,0,1-1,3.06,6.45,6.45,0,0,1-2.41,2.16A7.18,7.18,0,0,1,107,34.42Zm.79-4.36a4.38,4.38,0,0,0,2.32-.59,4.14,4.14,0,0,0,1.55-1.66,5.62,5.62,0,0,0,0-4.89,4.14,4.14,0,0,0-1.55-1.66,4.4,4.4,0,0,0-2.28-.59A4.21,4.21,0,0,0,104,22.94a5,5,0,0,0-.56,2.41,5.22,5.22,0,0,0,.56,2.46,4.09,4.09,0,0,0,1.56,1.66A4.37,4.37,0,0,0,107.79,30.06Zm8.86,4H112V29.38l.75-4.25L111.93,21V8h4.72Z" transform="translate(0 -0.69)"/><path class="cls-2" d="M123.2,13.86a2.55,2.55,0,0,1-1.91-.77,2.67,2.67,0,0,1-.75-1.93,2.65,2.65,0,0,1,.75-1.9,2.7,2.7,0,0,1,3.84,0,2.68,2.68,0,0,1,.73,1.9,2.7,2.7,0,0,1-.73,1.93A2.55,2.55,0,0,1,123.2,13.86Zm-2.38,20.2V16.67h4.76V34.06Z" transform="translate(0 -0.69)"/><path class="cls-2" d="M138,34.42a9.67,9.67,0,0,1-4.79-1.19,9.15,9.15,0,0,1-3.35-12.49,9,9,0,0,1,3.37-3.26,9.6,9.6,0,0,1,4.77-1.2,9.38,9.38,0,0,1,3.78.75,8.79,8.79,0,0,1,3,2.16l-3,3.06a4.48,4.48,0,0,0-1.63-1.15,5.55,5.55,0,0,0-2.11-.4,4.51,4.51,0,0,0-2.32.6A4.2,4.2,0,0,0,134,22.92a4.71,4.71,0,0,0-.6,2.43,4.86,4.86,0,0,0,.6,2.43,4.15,4.15,0,0,0,1.62,1.65A4.51,4.51,0,0,0,138,30a5.24,5.24,0,0,0,2.14-.42,4.41,4.41,0,0,0,1.64-1.2l3.06,3.06a9.08,9.08,0,0,1-3.06,2.19A9.22,9.22,0,0,1,138,34.42Z" transform="translate(0 -0.69)"/><path class="cls-2" d="M155.24,34.42a9.28,9.28,0,0,1-4.73-1.21,9.06,9.06,0,0,1-3.35-3.27,8.8,8.8,0,0,1-1.24-4.63,8.71,8.71,0,0,1,1.22-4.59,9.14,9.14,0,0,1,3.35-3.24,10,10,0,0,1,9.48,0,9.08,9.08,0,0,1,3.33,3.24,8.72,8.72,0,0,1,1.23,4.59,8.95,8.95,0,0,1-4.56,7.9A9.28,9.28,0,0,1,155.24,34.42Zm0-4.39a4.58,4.58,0,0,0,2.36-.6,4,4,0,0,0,1.59-1.65,5.18,5.18,0,0,0,.55-2.43,4.93,4.93,0,0,0-.57-2.41,4.18,4.18,0,0,0-1.59-1.64,4.48,4.48,0,0,0-2.34-.6,4.41,4.41,0,0,0-2.3.6,4.16,4.16,0,0,0-1.58,1.64,4.83,4.83,0,0,0-.58,2.41,5,5,0,0,0,.58,2.43,4.12,4.12,0,0,0,1.58,1.65A4.41,4.41,0,0,0,155.2,30Z" transform="translate(0 -0.69)"/></svg>